<svg width="986" height="228" viewBox="0 0 986 228" fill="none" xmlns="http://www.w3.org/2000/svg">
<path d="M55.5 213.593L183 139.981C203 128.434 203 99.5662 183 88.0192L55.5 14.4071C35.5 2.86007 10.5 17.2938 10.5 40.3878V187.612C10.5 210.706 35.5 225.14 55.5 213.593Z" stroke="#3B82F6" stroke-width="20"/>
<path d="M126.27 50.5811L6.13461 122.466" stroke="#3B82F6" stroke-width="20"/>
<path d="M266.438 63.5391V165H305.18C335.625 165 353.555 146.086 353.555 113.883C353.555 81.6797 335.625 63.5391 305.18 63.5391H266.438ZM287.672 81.0469H302.648C321.352 81.0469 331.898 92.7188 331.898 113.953C331.898 135.891 321.633 147.422 302.648 147.422H287.672V81.0469ZM394.195 151.359C387.234 151.359 382.594 147.844 382.594 142.219C382.594 136.875 386.953 133.43 394.617 132.867L410.508 131.883V137.367C410.508 145.523 403.125 151.359 394.195 151.359ZM387.445 166.195C396.867 166.195 406.219 161.484 410.438 153.469H410.859V165H430.688V113.18C430.688 97.9922 418.102 88.0078 398.766 88.0078C378.797 88.0078 366.352 98.0625 365.578 112.688H384.352C385.336 107.133 390.188 103.336 397.852 103.336C405.586 103.336 410.508 107.414 410.508 114.445V119.438L391.523 120.562C372.75 121.688 362.203 129.633 362.203 143.344C362.203 156.914 373.102 166.195 387.445 166.195ZM488.766 166.195C507.75 166.195 519.352 151.57 519.352 127.312C519.352 102.984 507.68 88.4297 488.695 88.4297C477.938 88.4297 469.57 93.7734 465.422 102.703H465V63.5391H444.469V165H464.719V152.062H465.141C469.289 160.852 477.727 166.195 488.766 166.195ZM481.664 104.883C491.859 104.883 498.328 113.602 498.328 127.312C498.328 141.094 491.93 149.672 481.664 149.672C471.68 149.672 464.93 140.953 464.93 127.312C464.93 113.812 471.75 104.883 481.664 104.883ZM528 136.102C528.633 155.156 544.172 166.758 568.57 166.758C593.742 166.758 609.703 154.312 609.703 134.625C609.703 119.156 600.844 110.438 580.523 106.078L568.219 103.477C556.547 100.805 551.625 97.2891 551.625 91.0312C551.625 83.5078 558.656 78.5156 569.133 78.5156C579.75 78.5156 587.273 83.7188 587.977 92.2969H607.875C607.523 73.9453 592.688 61.7812 569.062 61.7812C546.422 61.7812 530.25 74.1562 530.25 92.8594C530.25 107.695 539.461 117.188 558.164 121.195L571.383 124.078C583.617 126.82 588.469 130.477 588.469 137.086C588.469 144.539 580.734 149.953 569.414 149.953C558.164 149.953 549.445 144.469 548.461 136.102H528ZM654.844 103.195C663.984 103.195 670.242 109.805 670.664 119.438H638.672C639.375 110.016 645.844 103.195 654.844 103.195ZM670.945 141.938C669.047 147.703 663.281 151.43 655.758 151.43C645.281 151.43 638.461 144.047 638.461 133.289V132.023H690.422V125.766C690.422 102.844 676.57 88.0078 654.633 88.0078C632.344 88.0078 618.281 103.617 618.281 127.664C618.281 151.781 632.203 166.617 655.406 166.617C674.039 166.617 687.539 156.703 689.789 141.938H670.945ZM730.148 151.359C723.188 151.359 718.547 147.844 718.547 142.219C718.547 136.875 722.906 133.43 730.57 132.867L746.461 131.883V137.367C746.461 145.523 739.078 151.359 730.148 151.359ZM723.398 166.195C732.82 166.195 742.172 161.484 746.391 153.469H746.812V165H766.641V113.18C766.641 97.9922 754.055 88.0078 734.719 88.0078C714.75 88.0078 702.305 98.0625 701.531 112.688H720.305C721.289 107.133 726.141 103.336 733.805 103.336C741.539 103.336 746.461 107.414 746.461 114.445V119.438L727.477 120.562C708.703 121.688 698.156 129.633 698.156 143.344C698.156 156.914 709.055 166.195 723.398 166.195ZM779.93 165H800.461V122.883C800.461 112.266 806.367 106.078 816.492 106.078C819.445 106.078 822.258 106.57 823.945 107.273V89.2031C822.539 88.7812 820.5 88.4297 818.109 88.4297C809.25 88.4297 802.852 93.6328 800.18 103.195H799.758V89.625H779.93V165ZM898.336 117.68C897.422 100.594 884.484 88.0078 864.094 88.0078C841.523 88.0078 827.109 103.055 827.109 127.242C827.109 151.852 841.523 166.617 864.234 166.617C884.062 166.617 897.352 155.156 898.406 137.367H879.281C878.016 145.594 872.672 150.516 864.445 150.516C854.25 150.516 847.922 142.078 847.922 127.242C847.922 112.688 854.25 104.109 864.375 104.109C872.812 104.109 878.086 109.734 879.281 117.68H898.336ZM908.812 165H929.344V121.969C929.344 112.055 935.039 105.234 944.742 105.234C954.094 105.234 958.875 111.141 958.875 120.844V165H979.406V116.484C979.406 99.0469 969.844 88.2188 953.109 88.2188C941.648 88.2188 933.422 93.5625 929.414 103.055H928.992V63.5391H908.812V165Z" fill="black"/>
</svg>
